<svg xmlns="http://www.w3.org/2000/svg" viewBox="0 0 473.36 465.64"><defs><style>.cls-1,.cls-2{fill:#fff;stroke:#fff;stroke-miterlimit:10;}.cls-1{stroke-width:6px;}.cls-2{stroke-width:3px;}</style></defs><g id="Layer_2" data-name="Layer 2"><g id="Layer_1-2" data-name="Layer 1"><line class="cls-1" x1="472.04" y1="112.13" x2="410.22" y2="229.19"/><line class="cls-1" x1="236.93" y1="257.33" x2="329.1" y2="266.37"/><line class="cls-1" x1="329.1" y1="266.37" x2="410.22" y2="229.19"/><line class="cls-1" x1="358.81" y1="139.41" x2="472.04" y2="112.13"/><line class="cls-1" x1="317.22" y1="179.65" x2="358.81" y2="139.41"/><line class="cls-1" x1="357.91" y1="32.47" x2="358.81" y2="139.41"/><path class="cls-1" d="M357.91,32.47C321.59,52.7,286.59,74.7,250.69,94.76"/><line class="cls-1" x1="236.93" y1="66.93" x2="175.65" y2="179.57"/><line class="cls-1" x1="236.93" y1="66.93" x2="298.59" y2="180.49"/><line class="cls-1" x1="1.48" y1="112.33" x2="63.29" y2="229.39"/><line class="cls-1" x1="236.59" y1="257.52" x2="144.42" y2="266.56"/><line class="cls-1" x1="144.42" y1="266.56" x2="63.29" y2="229.39"/><line class="cls-1" x1="114.71" y1="139.61" x2="1.48" y2="112.33"/><line class="cls-1" x1="156.2" y1="179.75" x2="114.71" y2="139.61"/><line class="cls-1" x1="115.6" y1="32.66" x2="114.7" y2="139.61"/><path class="cls-1" d="M115.6,32.66c35,21,71,41,106,61.54"/><line class="cls-1" x1="236.59" y1="0.82" x2="188.28" y2="74.89"/><line class="cls-1" x1="236.59" y1="0.82" x2="284.89" y2="74.89"/><line class="cls-1" x1="155.31" y1="165.23" x2="218.59" y2="209.86"/><line class="cls-1" x1="218.59" y1="209.86" x2="236.93" y2="257.33"/><line class="cls-1" x1="155.31" y1="165.23" x2="159.26" y2="229.63"/><line class="cls-1" x1="159.26" y1="229.63" x2="236.93" y2="257.33"/><line class="cls-1" x1="318.13" y1="164.88" x2="254.85" y2="209.51"/><line class="cls-1" x1="254.85" y1="209.51" x2="236.51" y2="256.98"/><line class="cls-1" x1="318.13" y1="164.88" x2="314.17" y2="229.28"/><line class="cls-1" x1="314.17" y1="229.28" x2="236.51" y2="256.98"/><line class="cls-1" x1="134.13" y1="261.85" x2="64.35" y2="318.33"/><line class="cls-1" x1="103.86" y1="339.24" x2="64.35" y2="318.33"/><line class="cls-1" x1="155.31" y1="339.24" x2="103.86" y2="339.24"/><line class="cls-1" x1="194.29" y1="309.86" x2="155.31" y2="339.24"/><line class="cls-1" x1="186.95" y1="294.6" x2="198.1" y2="262.04"/><line class="cls-1" x1="186.95" y1="294.6" x2="236.59" y2="375.4"/><line class="cls-1" x1="339.05" y1="262.04" x2="408.82" y2="318.53"/><line class="cls-1" x1="369.32" y1="339.43" x2="408.82" y2="318.53"/><line class="cls-1" x1="317.86" y1="339.43" x2="369.32" y2="339.43"/><line class="cls-1" x1="278.88" y1="310.05" x2="317.86" y2="339.43"/><line class="cls-1" x1="286.23" y1="294.8" x2="275.08" y2="262.24"/><line class="cls-1" x1="286.23" y1="294.8" x2="236.59" y2="375.59"/><line class="cls-1" x1="472.04" y1="112.13" x2="389.07" y2="208.73"/><line class="cls-1" x1="389.07" y1="208.73" x2="296.17" y2="263.14"/><line class="cls-1" x1="1.14" y1="112.68" x2="84.1" y2="209.28"/><line class="cls-1" x1="84.1" y1="209.28" x2="174.8" y2="262.4"/><line class="cls-2" x1="155.31" y1="165.23" x2="182.43" y2="223.42"/><line class="cls-2" x1="182.43" y1="223.42" x2="236.93" y2="257.33"/><line class="cls-2" x1="318.13" y1="166.02" x2="291.01" y2="224.21"/><line class="cls-2" x1="291.01" y1="224.21" x2="236.51" y2="258.12"/><line class="cls-1" x1="63.29" y1="229.39" x2="84.1" y2="209.28"/><line class="cls-1" x1="389.07" y1="208.73" x2="410.22" y2="229.19"/><line class="cls-1" x1="357.91" y1="32.47" x2="330.64" y2="123.71"/><line class="cls-1" x1="330.64" y1="123.71" x2="293.36" y2="170.86"/><line class="cls-1" x1="115.15" y1="32.47" x2="142.43" y2="123.71"/><line class="cls-1" x1="142.43" y1="123.71" x2="179.71" y2="170.86"/><line class="cls-1" x1="114.71" y1="139.61" x2="142.43" y2="123.71"/><line class="cls-1" x1="358.81" y1="139.41" x2="330.64" y2="123.71"/><line class="cls-1" x1="236.93" y1="66.93" x2="218.59" y2="209.86"/><line class="cls-1" x1="236.93" y1="66.93" x2="254.85" y2="209.51"/><line class="cls-1" x1="159.26" y1="229.63" x2="198.1" y2="262.04"/><line class="cls-1" x1="314.17" y1="229.28" x2="275.08" y2="262.24"/><line class="cls-1" x1="187.62" y1="328.52" x2="237.25" y2="409.31"/><line class="cls-1" x1="285.56" y1="328.52" x2="235.92" y2="409.31"/><line class="cls-1" x1="285.56" y1="328.52" x2="267.76" y2="427.94"/><line class="cls-1" x1="267.76" y1="427.94" x2="236.59" y2="375.4"/><line class="cls-1" x1="187.28" y1="328.52" x2="205.08" y2="427.94"/><line class="cls-1" x1="205.08" y1="427.94" x2="236.25" y2="375.4"/><line class="cls-1" x1="267.76" y1="427.94" x2="236.59" y2="464.66"/><line class="cls-1" x1="236.59" y1="464.66" x2="205.08" y2="427.94"/><line class="cls-2" x1="267.76" y1="427.94" x2="236.59" y2="410.99"/><line class="cls-2" x1="236.59" y1="410.99" x2="205.08" y2="427.94"/><line class="cls-1" x1="141.19" y1="318.33" x2="64.35" y2="318.33"/><line class="cls-1" x1="186.95" y1="294.6" x2="141.19" y2="318.33"/><line class="cls-1" x1="332.25" y1="318.33" x2="409.09" y2="318.33"/><line class="cls-1" x1="286.49" y1="294.6" x2="332.25" y2="318.33"/><line class="cls-1" x1="155.31" y1="339.24" x2="141.19" y2="318.33"/><line class="cls-1" x1="317.86" y1="339.43" x2="332.25" y2="318.33"/><line class="cls-2" x1="236.93" y1="66.93" x2="236.59" y2="0.82"/><line class="cls-2" x1="258.8" y1="339.43" x2="186.95" y2="294.6"/><line class="cls-2" x1="214.77" y1="339.43" x2="286.62" y2="294.6"/><line class="cls-2" x1="159.26" y1="229.63" x2="182.43" y2="223.42"/><line class="cls-2" x1="291.01" y1="224.21" x2="314.17" y2="229.28"/></g></g></svg>